<?xml version="1.0" encoding="UTF-8" standalone="no"?>
<svg
   xmlns:dc="http://purl.org/dc/elements/1.1/"
   xmlns:cc="http://creativecommons.org/ns#"
   xmlns:rdf="http://www.w3.org/1999/02/22-rdf-syntax-ns#"
   xmlns:svg="http://www.w3.org/2000/svg"
   xmlns="http://www.w3.org/2000/svg"
   xmlns:sodipodi="http://sodipodi.sourceforge.net/DTD/sodipodi-0.dtd"
   xmlns:inkscape="http://www.inkscape.org/namespaces/inkscape"
   width="564"
   height="1120"
   viewBox="0 0 564 1120"
   version="1.1"
   id="svg4059"
   sodipodi:docname="success-background-rotated.svg"
   style="fill:none"
   inkscape:version="0.92.3 (2405546, 2018-03-11)">
  <metadata
     id="metadata4065">
    <rdf:RDF>
      <cc:Work
         rdf:about="">
        <dc:format>image/svg+xml</dc:format>
        <dc:type
           rdf:resource="http://purl.org/dc/dcmitype/StillImage" />
        <dc:title></dc:title>
      </cc:Work>
    </rdf:RDF>
  </metadata>
  <defs
     id="defs4063" />
  <sodipodi:namedview
     pagecolor="#ffffff"
     bordercolor="#666666"
     borderopacity="1"
     objecttolerance="10"
     gridtolerance="10"
     guidetolerance="10"
     inkscape:pageopacity="0"
     inkscape:pageshadow="2"
     inkscape:window-width="1853"
     inkscape:window-height="1025"
     id="namedview4061"
     showgrid="false"
     inkscape:zoom="0.52813993"
     inkscape:cx="771.44223"
     inkscape:cy="562.33975"
     inkscape:window-x="1987"
     inkscape:window-y="27"
     inkscape:window-maximized="1"
     inkscape:current-layer="g4142" />
  <g
     id="g4142"
     transform="rotate(90,282.9021,559.82069)">
    <g
       id="g4219"
       transform="translate(-277.44604,278.05804)">
      <path
         style="stroke:#04d361;stroke-width:3;stroke-linecap:round;stroke-linejoin:round;stroke-miterlimit:10"
         inkscape:connector-curvature="0"
         d="m 1020.77,183.235 c 0,5.642 -4.56,10.217 -10.2,10.217 -5.63,0 -10.2,-4.575 -10.2,-10.217 0,-5.643 4.57,-10.217 10.2,-10.217 5.62,0 10.2,4.574 10.2,10.217 z"
         stroke-miterlimit="10"
         id="path3909" />
      <path
         style="stroke:#04d361;stroke-width:3;stroke-linecap:round;stroke-linejoin:round;stroke-miterlimit:10"
         inkscape:connector-curvature="0"
         d="m 1017.95,190.283 7.2,7.226"
         stroke-miterlimit="10"
         id="path3911" />
      <path
         style="stroke:#04d361;stroke-width:3;stroke-linecap:round;stroke-linejoin:round;stroke-miterlimit:10"
         inkscape:connector-curvature="0"
         d="m 276.847,153.154 10.735,10.749"
         stroke-miterlimit="10"
         id="path3913" />
      <path
         style="stroke:#04d361;stroke-width:3;stroke-linecap:round;stroke-linejoin:round;stroke-miterlimit:10"
         inkscape:connector-curvature="0"
         d="m 287.582,153.154 -10.735,10.749"
         stroke-miterlimit="10"
         id="path3915" />
      <path
         style="stroke:#04d361;stroke-width:3;stroke-linecap:round;stroke-linejoin:round;stroke-miterlimit:10"
         inkscape:connector-curvature="0"
         d="m 892.155,406.633 10.735,10.749"
         stroke-miterlimit="10"
         id="path3917" />
      <path
         style="stroke:#04d361;stroke-width:3;stroke-linecap:round;stroke-linejoin:round;stroke-miterlimit:10"
         inkscape:connector-curvature="0"
         d="m 902.89,406.633 -10.735,10.749"
         stroke-miterlimit="10"
         id="path3919" />
      <path
         style="stroke:#04d361;stroke-width:3;stroke-linecap:round;stroke-linejoin:round;stroke-miterlimit:10"
         inkscape:connector-curvature="0"
         d="m 305.657,501.133 v 15.2"
         stroke-miterlimit="10"
         id="path3921" />
      <path
         style="stroke:#04d361;stroke-width:3;stroke-linecap:round;stroke-linejoin:round;stroke-miterlimit:10"
         inkscape:connector-curvature="0"
         d="M 313.266,508.732 H 298.068"
         stroke-miterlimit="10"
         id="path3923" />
      <path
         style="stroke:#04d361;stroke-width:3;stroke-linecap:round;stroke-linejoin:round;stroke-miterlimit:10"
         inkscape:connector-curvature="0"
         d="m 100.699,250.247 c 0,5.09 -4.1242,9.238 -9.2257,9.238 -5.0837,0 -9.2253,-4.13 -9.2253,-9.238 0,-5.091 4.1239,-9.238 9.2253,-9.238 5.1015,0.018 9.2257,4.147 9.2257,9.238 z"
         stroke-miterlimit="10"
         id="path3925" />
      <path
         style="stroke:#04d361;stroke-width:3;stroke-linecap:round;stroke-linejoin:round;stroke-miterlimit:10"
         inkscape:connector-curvature="0"
         d="m 643.628,11.0563 c 0,5.0906 -4.124,9.2378 -9.225,9.2378 -5.084,0 -9.226,-4.1294 -9.226,-9.2378 0,-5.09064 4.124,-9.23791 9.226,-9.23791 5.101,0.0178 9.225,4.14727 9.225,9.23791 z"
         stroke-miterlimit="10"
         id="path3927" />
      <path
         style="stroke:#04d361;stroke-width:3;stroke-linecap:round;stroke-linejoin:round;stroke-miterlimit:10"
         inkscape:connector-curvature="0"
         d="m 778.971,553.585 c 0,5.091 -4.124,9.238 -9.225,9.238 -5.084,0 -9.225,-4.13 -9.225,-9.238 0,-5.091 4.123,-9.238 9.225,-9.238 5.101,0.018 9.225,4.147 9.225,9.238 z"
         stroke-miterlimit="10"
         id="path3929" />
      <path
         style="fill:#9871f5"
         inkscape:connector-curvature="0"
         d="m 4.14583,377.691 c 1.84526,0 3.34114,-1.497 3.34114,-3.345 0,-1.848 -1.49588,-3.346 -3.34114,-3.346 -1.84526,0 -3.341142,1.498 -3.341142,3.346 0,1.848 1.495882,3.345 3.341142,3.345 z"
         id="path3931" />
      <path
         style="fill:#9871f5"
         inkscape:connector-curvature="0"
         d="m 27.484,377.691 c 1.8452,0 3.3411,-1.497 3.3411,-3.345 0,-1.848 -1.4959,-3.346 -3.3411,-3.346 -1.8453,0 -3.3412,1.498 -3.3412,3.346 0,1.848 1.4959,3.345 3.3412,3.345 z"
         id="path3933" />
      <path
         style="fill:#9871f5"
         inkscape:connector-curvature="0"
         d="m 50.805,377.691 c 1.8453,0 3.3411,-1.497 3.3411,-3.345 0,-1.848 -1.4958,-3.346 -3.3411,-3.346 -1.8453,0 -3.3411,1.498 -3.3411,3.346 0,1.848 1.4958,3.345 3.3411,3.345 z"
         id="path3935" />
      <path
         style="fill:#9871f5"
         inkscape:connector-curvature="0"
         d="m 74.1441,377.691 c 1.8453,0 3.3412,-1.497 3.3412,-3.345 0,-1.848 -1.4959,-3.346 -3.3412,-3.346 -1.8452,0 -3.3411,1.498 -3.3411,3.346 0,1.848 1.4959,3.345 3.3411,3.345 z"
         id="path3937" />
      <path
         style="fill:#9871f5"
         inkscape:connector-curvature="0"
         d="m 97.4649,377.691 c 1.8453,0 3.3411,-1.497 3.3411,-3.345 0,-1.848 -1.4958,-3.346 -3.3411,-3.346 -1.8452,0 -3.3411,1.498 -3.3411,3.346 0,1.848 1.4959,3.345 3.3411,3.345 z"
         id="path3939" />
      <path
         style="fill:#9871f5"
         inkscape:connector-curvature="0"
         d="m 120.803,377.691 c 1.846,0 3.341,-1.497 3.341,-3.345 0,-1.848 -1.495,-3.346 -3.341,-3.346 -1.845,0 -3.341,1.498 -3.341,3.346 0,1.848 1.496,3.345 3.341,3.345 z"
         id="path3941" />
      <path
         style="fill:#9871f5"
         inkscape:connector-curvature="0"
         d="m 4.14534,401.044 c 1.84526,0 3.34114,-1.498 3.34114,-3.345 0,-1.848 -1.49588,-3.346 -3.34114,-3.346 -1.84526,0 -3.341141,1.498 -3.341141,3.346 0,1.847 1.495881,3.345 3.341141,3.345 z"
         id="path3943" />
      <path
         style="fill:#9871f5"
         inkscape:connector-curvature="0"
         d="m 27.484,401.044 c 1.8452,0 3.3411,-1.498 3.3411,-3.345 0,-1.848 -1.4959,-3.346 -3.3411,-3.346 -1.8453,0 -3.3412,1.498 -3.3412,3.346 0,1.847 1.4959,3.345 3.3412,3.345 z"
         id="path3945" />
      <path
         style="fill:#9871f5"
         inkscape:connector-curvature="0"
         d="m 50.8055,401.044 c 1.8453,0 3.3411,-1.498 3.3411,-3.345 0,-1.848 -1.4958,-3.346 -3.3411,-3.346 -1.8453,0 -3.3411,1.498 -3.3411,3.346 0,1.847 1.4958,3.345 3.3411,3.345 z"
         id="path3947" />
      <path
         style="fill:#9871f5"
         inkscape:connector-curvature="0"
         d="m 74.1441,401.044 c 1.8453,0 3.3412,-1.498 3.3412,-3.345 0,-1.848 -1.4959,-3.346 -3.3412,-3.346 -1.8452,0 -3.3411,1.498 -3.3411,3.346 0,1.847 1.4959,3.345 3.3411,3.345 z"
         id="path3949" />
      <path
         style="fill:#9871f5"
         inkscape:connector-curvature="0"
         d="m 97.4649,401.044 c 1.8453,0 3.3411,-1.498 3.3411,-3.345 0,-1.848 -1.4958,-3.346 -3.3411,-3.346 -1.8452,0 -3.3411,1.498 -3.3411,3.346 0,1.847 1.4959,3.345 3.3411,3.345 z"
         id="path3951" />
      <path
         style="fill:#9871f5"
         inkscape:connector-curvature="0"
         d="m 120.803,401.044 c 1.846,0 3.341,-1.498 3.341,-3.345 0,-1.848 -1.495,-3.346 -3.341,-3.346 -1.845,0 -3.341,1.498 -3.341,3.346 0,1.847 1.496,3.345 3.341,3.345 z"
         id="path3953" />
      <path
         style="fill:#9871f5"
         inkscape:connector-curvature="0"
         d="m 4.14534,424.415 c 1.84526,0 3.34114,-1.498 3.34114,-3.346 0,-1.848 -1.49588,-3.345 -3.34114,-3.345 -1.84526,0 -3.341141,1.497 -3.341141,3.345 0,1.848 1.495881,3.346 3.341141,3.346 z"
         id="path3955" />
      <path
         style="fill:#9871f5"
         inkscape:connector-curvature="0"
         d="m 27.484,424.415 c 1.8452,0 3.3411,-1.498 3.3411,-3.346 0,-1.848 -1.4959,-3.345 -3.3411,-3.345 -1.8453,0 -3.3412,1.497 -3.3412,3.345 0,1.848 1.4959,3.346 3.3412,3.346 z"
         id="path3957" />
      <path
         style="fill:#9871f5"
         inkscape:connector-curvature="0"
         d="m 50.8055,424.415 c 1.8453,0 3.3411,-1.498 3.3411,-3.346 0,-1.848 -1.4958,-3.345 -3.3411,-3.345 -1.8453,0 -3.3411,1.497 -3.3411,3.345 0,1.848 1.4958,3.346 3.3411,3.346 z"
         id="path3959" />
      <path
         style="fill:#9871f5"
         inkscape:connector-curvature="0"
         d="m 74.1441,424.415 c 1.8453,0 3.3412,-1.498 3.3412,-3.346 0,-1.848 -1.4959,-3.345 -3.3412,-3.345 -1.8452,0 -3.3411,1.497 -3.3411,3.345 0,1.848 1.4959,3.346 3.3411,3.346 z"
         id="path3961" />
      <path
         style="fill:#9871f5"
         inkscape:connector-curvature="0"
         d="m 97.4649,424.415 c 1.8453,0 3.3411,-1.498 3.3411,-3.346 0,-1.848 -1.4958,-3.345 -3.3411,-3.345 -1.8452,0 -3.3411,1.497 -3.3411,3.345 0,1.848 1.4959,3.346 3.3411,3.346 z"
         id="path3963" />
      <path
         style="fill:#9871f5"
         inkscape:connector-curvature="0"
         d="m 120.803,424.415 c 1.846,0 3.341,-1.498 3.341,-3.346 0,-1.848 -1.495,-3.345 -3.341,-3.345 -1.845,0 -3.341,1.497 -3.341,3.345 0,1.848 1.496,3.346 3.341,3.346 z"
         id="path3965" />
      <path
         style="fill:#9871f5"
         inkscape:connector-curvature="0"
         d="m 4.14534,447.768 c 1.84526,0 3.34114,-1.498 3.34114,-3.346 0,-1.848 -1.49588,-3.346 -3.34114,-3.346 -1.84526,0 -3.341141,1.498 -3.341141,3.346 0,1.848 1.495881,3.346 3.341141,3.346 z"
         id="path3967" />
      <path
         style="fill:#9871f5"
         inkscape:connector-curvature="0"
         d="m 27.484,447.768 c 1.8452,0 3.3411,-1.498 3.3411,-3.346 0,-1.848 -1.4959,-3.346 -3.3411,-3.346 -1.8453,0 -3.3412,1.498 -3.3412,3.346 0,1.848 1.4959,3.346 3.3412,3.346 z"
         id="path3969" />
      <path
         style="fill:#9871f5"
         inkscape:connector-curvature="0"
         d="m 50.8055,447.768 c 1.8453,0 3.3411,-1.498 3.3411,-3.346 0,-1.848 -1.4958,-3.346 -3.3411,-3.346 -1.8453,0 -3.3411,1.498 -3.3411,3.346 0,1.848 1.4958,3.346 3.3411,3.346 z"
         id="path3971" />
      <path
         style="fill:#9871f5"
         inkscape:connector-curvature="0"
         d="m 74.1441,447.768 c 1.8453,0 3.3412,-1.498 3.3412,-3.346 0,-1.848 -1.4959,-3.346 -3.3412,-3.346 -1.8452,0 -3.3411,1.498 -3.3411,3.346 0,1.848 1.4959,3.346 3.3411,3.346 z"
         id="path3973" />
      <path
         style="fill:#9871f5"
         inkscape:connector-curvature="0"
         d="m 97.4649,447.768 c 1.8453,0 3.3411,-1.498 3.3411,-3.346 0,-1.848 -1.4958,-3.346 -3.3411,-3.346 -1.8452,0 -3.3411,1.498 -3.3411,3.346 0,1.848 1.4959,3.346 3.3411,3.346 z"
         id="path3975" />
      <path
         style="fill:#9871f5"
         inkscape:connector-curvature="0"
         d="m 120.803,447.768 c 1.846,0 3.341,-1.498 3.341,-3.346 0,-1.848 -1.495,-3.346 -3.341,-3.346 -1.845,0 -3.341,1.498 -3.341,3.346 0,1.848 1.496,3.346 3.341,3.346 z"
         id="path3977" />
      <path
         style="fill:#9871f5"
         inkscape:connector-curvature="0"
         d="m 773.976,144.618 c 1.846,0 3.342,-1.498 3.342,-3.346 0,-1.848 -1.496,-3.346 -3.342,-3.346 -1.845,0 -3.341,1.498 -3.341,3.346 0,1.848 1.496,3.346 3.341,3.346 z"
         id="path3979" />
      <path
         style="fill:#9871f5"
         inkscape:connector-curvature="0"
         d="m 797.297,144.618 c 1.845,0 3.341,-1.498 3.341,-3.346 0,-1.848 -1.496,-3.346 -3.341,-3.346 -1.845,0 -3.341,1.498 -3.341,3.346 0,1.848 1.496,3.346 3.341,3.346 z"
         id="path3981" />
      <path
         style="fill:#9871f5"
         inkscape:connector-curvature="0"
         d="m 820.636,144.618 c 1.845,0 3.341,-1.498 3.341,-3.346 0,-1.848 -1.496,-3.346 -3.341,-3.346 -1.846,0 -3.342,1.498 -3.342,3.346 0,1.848 1.496,3.346 3.342,3.346 z"
         id="path3983" />
      <path
         style="fill:#9871f5"
         inkscape:connector-curvature="0"
         d="m 773.976,167.988 c 1.845,0 3.341,-1.498 3.341,-3.346 0,-1.847 -1.496,-3.345 -3.341,-3.345 -1.845,0 -3.341,1.498 -3.341,3.345 0,1.848 1.496,3.346 3.341,3.346 z"
         id="path3985" />
      <path
         style="fill:#9871f5"
         inkscape:connector-curvature="0"
         d="m 797.297,167.988 c 1.845,0 3.341,-1.498 3.341,-3.345 0,-1.848 -1.496,-3.346 -3.341,-3.346 -1.845,0 -3.341,1.498 -3.341,3.346 0,1.847 1.496,3.345 3.341,3.345 z"
         id="path3987" />
      <path
         style="fill:#9871f5"
         inkscape:connector-curvature="0"
         d="m 820.636,167.988 c 1.845,0 3.341,-1.498 3.341,-3.345 0,-1.848 -1.496,-3.346 -3.341,-3.346 -1.846,0 -3.342,1.498 -3.342,3.346 0,1.847 1.496,3.345 3.342,3.345 z"
         id="path3989" />
      <path
         style="fill:#9871f5"
         inkscape:connector-curvature="0"
         d="m 261.705,22.4333 c 1.845,0 3.341,-1.498 3.341,-3.3457 0,-1.8478 -1.496,-3.3457 -3.341,-3.3457 -1.846,0 -3.341,1.4979 -3.341,3.3457 0,1.8477 1.495,3.3457 3.341,3.3457 z"
         id="path3991" />
      <path
         style="fill:#9871f5"
         inkscape:connector-curvature="0"
         d="m 285.025,22.4333 c 1.845,0 3.341,-1.498 3.341,-3.3458 0,-1.8477 -1.496,-3.3457 -3.341,-3.3457 -1.845,0 -3.341,1.498 -3.341,3.3457 0,1.8478 1.496,3.3458 3.341,3.3458 z"
         id="path3993" />
      <path
         style="fill:#9871f5"
         inkscape:connector-curvature="0"
         d="m 308.363,22.4333 c 1.846,0 3.341,-1.498 3.341,-3.3458 0,-1.8477 -1.495,-3.3457 -3.341,-3.3457 -1.845,0 -3.341,1.498 -3.341,3.3457 0,1.8478 1.496,3.3458 3.341,3.3458 z"
         id="path3995" />
      <path
         style="fill:#9871f5"
         inkscape:connector-curvature="0"
         d="m 261.704,45.8039 c 1.846,0 3.341,-1.4979 3.341,-3.3457 0,-1.8478 -1.495,-3.3457 -3.341,-3.3457 -1.845,0 -3.341,1.4979 -3.341,3.3457 0,1.8478 1.496,3.3457 3.341,3.3457 z"
         id="path3997" />
      <path
         style="fill:#9871f5"
         inkscape:connector-curvature="0"
         d="m 285.025,45.8039 c 1.845,0 3.341,-1.4979 3.341,-3.3457 0,-1.8478 -1.496,-3.3457 -3.341,-3.3457 -1.845,0 -3.341,1.4979 -3.341,3.3457 0,1.8478 1.496,3.3457 3.341,3.3457 z"
         id="path3999" />
      <path
         style="fill:#9871f5"
         inkscape:connector-curvature="0"
         d="m 308.365,45.8039 c 1.845,0 3.341,-1.4979 3.341,-3.3457 0,-1.8478 -1.496,-3.3457 -3.341,-3.3457 -1.846,0 -3.342,1.4979 -3.342,3.3457 0,1.8478 1.496,3.3457 3.342,3.3457 z"
         id="path4001" />
      <path
         style="fill:#9871f5"
         inkscape:connector-curvature="0"
         d="m 1116.66,377.691 c 1.84,0 3.34,-1.497 3.34,-3.345 0,-1.848 -1.5,-3.346 -3.34,-3.346 -1.85,0 -3.34,1.498 -3.34,3.346 0,1.848 1.49,3.345 3.34,3.345 z"
         id="path4003" />
      <path
         style="fill:#9871f5"
         inkscape:connector-curvature="0"
         d="m 1116.66,401.062 c 1.84,0 3.34,-1.498 3.34,-3.346 0,-1.847 -1.5,-3.345 -3.34,-3.345 -1.85,0 -3.34,1.498 -3.34,3.345 0,1.848 1.49,3.346 3.34,3.346 z"
         id="path4005" />
      <path
         style="fill:#9871f5"
         inkscape:connector-curvature="0"
         d="m 1116.66,424.415 c 1.84,0 3.34,-1.498 3.34,-3.346 0,-1.848 -1.5,-3.346 -3.34,-3.346 -1.85,0 -3.34,1.498 -3.34,3.346 0,1.848 1.49,3.346 3.34,3.346 z"
         id="path4007" />
      <path
         style="fill:#9871f5"
         inkscape:connector-curvature="0"
         d="m 1116.66,447.786 c 1.84,0 3.34,-1.498 3.34,-3.346 0,-1.848 -1.5,-3.346 -3.34,-3.346 -1.85,0 -3.34,1.498 -3.34,3.346 0,1.848 1.49,3.346 3.34,3.346 z"
         id="path4009" />
      <path
         style="fill:#9871f5"
         inkscape:connector-curvature="0"
         d="m 1116.66,471.138 c 1.84,0 3.34,-1.498 3.34,-3.345 0,-1.848 -1.5,-3.346 -3.34,-3.346 -1.85,0 -3.34,1.498 -3.34,3.346 0,1.847 1.49,3.345 3.34,3.345 z"
         id="path4011" />
      <path
         style="fill:#9871f5"
         inkscape:connector-curvature="0"
         d="m 1116.66,494.509 c 1.84,0 3.34,-1.498 3.34,-3.346 0,-1.848 -1.5,-3.346 -3.34,-3.346 -1.85,0 -3.34,1.498 -3.34,3.346 0,1.848 1.49,3.346 3.34,3.346 z"
         id="path4013" />
      <path
         style="fill:#9871f5"
         inkscape:connector-curvature="0"
         d="m 1116.66,517.862 c 1.84,0 3.34,-1.498 3.34,-3.346 0,-1.848 -1.5,-3.346 -3.34,-3.346 -1.85,0 -3.34,1.498 -3.34,3.346 0,1.848 1.49,3.346 3.34,3.346 z"
         id="path4015" />
      <path
         style="fill:#9871f5"
         inkscape:connector-curvature="0"
         d="m 1093.32,377.691 c 1.85,0 3.34,-1.497 3.34,-3.345 0,-1.848 -1.49,-3.346 -3.34,-3.346 -1.84,0 -3.34,1.498 -3.34,3.346 0,1.848 1.5,3.345 3.34,3.345 z"
         id="path4017" />
      <path
         style="fill:#9871f5"
         inkscape:connector-curvature="0"
         d="m 1093.32,401.062 c 1.85,0 3.34,-1.498 3.34,-3.346 0,-1.847 -1.49,-3.345 -3.34,-3.345 -1.84,0 -3.34,1.498 -3.34,3.345 0,1.848 1.5,3.346 3.34,3.346 z"
         id="path4019" />
      <path
         style="fill:#9871f5"
         inkscape:connector-curvature="0"
         d="m 1093.32,424.415 c 1.85,0 3.34,-1.498 3.34,-3.346 0,-1.848 -1.49,-3.346 -3.34,-3.346 -1.84,0 -3.34,1.498 -3.34,3.346 0,1.848 1.5,3.346 3.34,3.346 z"
         id="path4021" />
      <path
         style="fill:#9871f5"
         inkscape:connector-curvature="0"
         d="m 1093.32,447.786 c 1.85,0 3.34,-1.498 3.34,-3.346 0,-1.848 -1.49,-3.346 -3.34,-3.346 -1.84,0 -3.34,1.498 -3.34,3.346 0,1.848 1.5,3.346 3.34,3.346 z"
         id="path4023" />
      <path
         style="fill:#9871f5"
         inkscape:connector-curvature="0"
         d="m 1093.32,471.138 c 1.85,0 3.34,-1.498 3.34,-3.345 0,-1.848 -1.49,-3.346 -3.34,-3.346 -1.84,0 -3.34,1.498 -3.34,3.346 0,1.847 1.5,3.345 3.34,3.345 z"
         id="path4025" />
      <path
         style="fill:#9871f5"
         inkscape:connector-curvature="0"
         d="m 1093.32,494.509 c 1.85,0 3.34,-1.498 3.34,-3.346 0,-1.848 -1.49,-3.346 -3.34,-3.346 -1.84,0 -3.34,1.498 -3.34,3.346 0,1.848 1.5,3.346 3.34,3.346 z"
         id="path4027" />
      <path
         style="fill:#9871f5"
         inkscape:connector-curvature="0"
         d="m 1093.32,517.862 c 1.85,0 3.34,-1.498 3.34,-3.346 0,-1.848 -1.49,-3.346 -3.34,-3.346 -1.84,0 -3.34,1.498 -3.34,3.346 0,1.848 1.5,3.346 3.34,3.346 z"
         id="path4029" />
      <path
         style="fill:#9871f5"
         inkscape:connector-curvature="0"
         d="m 1070,377.691 c 1.84,0 3.34,-1.497 3.34,-3.345 0,-1.848 -1.5,-3.346 -3.34,-3.346 -1.85,0 -3.34,1.498 -3.34,3.346 0,1.848 1.49,3.345 3.34,3.345 z"
         id="path4031" />
      <path
         style="fill:#9871f5"
         inkscape:connector-curvature="0"
         d="m 1070,401.062 c 1.84,0 3.34,-1.498 3.34,-3.346 0,-1.847 -1.5,-3.345 -3.34,-3.345 -1.85,0 -3.34,1.498 -3.34,3.345 0,1.848 1.49,3.346 3.34,3.346 z"
         id="path4033" />
      <path
         style="fill:#9871f5"
         inkscape:connector-curvature="0"
         d="m 1070,424.415 c 1.84,0 3.34,-1.498 3.34,-3.346 0,-1.848 -1.5,-3.346 -3.34,-3.346 -1.85,0 -3.34,1.498 -3.34,3.346 0,1.848 1.49,3.346 3.34,3.346 z"
         id="path4035" />
      <path
         style="fill:#9871f5"
         inkscape:connector-curvature="0"
         d="m 1070,447.786 c 1.84,0 3.34,-1.498 3.34,-3.346 0,-1.848 -1.5,-3.346 -3.34,-3.346 -1.85,0 -3.34,1.498 -3.34,3.346 0,1.848 1.49,3.346 3.34,3.346 z"
         id="path4037" />
      <path
         style="fill:#9871f5"
         inkscape:connector-curvature="0"
         d="m 1070,471.138 c 1.84,0 3.34,-1.498 3.34,-3.345 0,-1.848 -1.5,-3.346 -3.34,-3.346 -1.85,0 -3.34,1.498 -3.34,3.346 0,1.847 1.49,3.345 3.34,3.345 z"
         id="path4039" />
      <path
         style="fill:#9871f5"
         inkscape:connector-curvature="0"
         d="m 1070,494.509 c 1.84,0 3.34,-1.498 3.34,-3.346 0,-1.848 -1.5,-3.346 -3.34,-3.346 -1.85,0 -3.34,1.498 -3.34,3.346 0,1.848 1.49,3.346 3.34,3.346 z"
         id="path4041" />
      <path
         style="fill:#9871f5"
         inkscape:connector-curvature="0"
         d="m 1070,517.862 c 1.84,0 3.34,-1.498 3.34,-3.346 0,-1.848 -1.5,-3.346 -3.34,-3.346 -1.85,0 -3.34,1.498 -3.34,3.346 0,1.848 1.49,3.346 3.34,3.346 z"
         id="path4043" />
      <path
         style="fill:#9871f5"
         inkscape:connector-curvature="0"
         d="m 1046.66,377.691 c 1.85,0 3.34,-1.497 3.34,-3.345 0,-1.848 -1.49,-3.346 -3.34,-3.346 -1.84,0 -3.34,1.498 -3.34,3.346 0,1.848 1.5,3.345 3.34,3.345 z"
         id="path4045" />
      <path
         style="fill:#9871f5"
         inkscape:connector-curvature="0"
         d="m 1046.66,401.062 c 1.85,0 3.34,-1.498 3.34,-3.346 0,-1.847 -1.49,-3.345 -3.34,-3.345 -1.85,0 -3.34,1.498 -3.34,3.345 0,1.848 1.49,3.346 3.34,3.346 z"
         id="path4047" />
      <path
         style="fill:#9871f5"
         inkscape:connector-curvature="0"
         d="m 1046.66,424.415 c 1.85,0 3.34,-1.498 3.34,-3.346 0,-1.848 -1.49,-3.345 -3.34,-3.345 -1.85,0 -3.34,1.497 -3.34,3.345 0,1.848 1.49,3.346 3.34,3.346 z"
         id="path4049" />
      <path
         style="fill:#9871f5"
         inkscape:connector-curvature="0"
         d="m 1046.66,447.786 c 1.85,0 3.34,-1.498 3.34,-3.346 0,-1.848 -1.49,-3.346 -3.34,-3.346 -1.85,0 -3.34,1.498 -3.34,3.346 0,1.848 1.49,3.346 3.34,3.346 z"
         id="path4051" />
      <path
         style="fill:#9871f5"
         inkscape:connector-curvature="0"
         d="m 1046.66,471.138 c 1.85,0 3.34,-1.498 3.34,-3.345 0,-1.848 -1.49,-3.346 -3.34,-3.346 -1.85,0 -3.34,1.498 -3.34,3.346 0,1.847 1.49,3.345 3.34,3.345 z"
         id="path4053" />
      <path
         style="fill:#9871f5"
         inkscape:connector-curvature="0"
         d="m 1046.66,494.509 c 1.85,0 3.34,-1.498 3.34,-3.346 0,-1.848 -1.49,-3.346 -3.34,-3.346 -1.85,0 -3.34,1.498 -3.34,3.346 0,1.848 1.49,3.346 3.34,3.346 z"
         id="path4055" />
      <path
         style="fill:#9871f5"
         inkscape:connector-curvature="0"
         d="m 1046.66,517.862 c 1.85,0 3.34,-1.498 3.34,-3.346 0,-1.848 -1.49,-3.346 -3.34,-3.346 -1.85,0 -3.34,1.498 -3.34,3.346 0,1.848 1.49,3.346 3.34,3.346 z"
         id="path4057" />
    </g>
  </g>
</svg>
